<svg viewBox="0 0 150 30">
	<g>
		<g>
			<path class="st0" d="M143.3,19.51c0,1.85,1.5,3.35,3.35,3.35c1.84,0,3.35-1.5,3.35-3.35c0-1.85-1.5-3.35-3.35-3.35
			C144.8,16.15,143.3,17.66,143.3,19.51z M143.77,19.51c0-1.59,1.29-2.88,2.88-2.88c1.59,0,2.88,1.29,2.88,2.88
			c0,1.59-1.29,2.88-2.88,2.88C145.07,22.38,143.77,21.09,143.77,19.51z"></path>
			<g>
				<path class="st0" d="M148.39,21.26h-0.79l-1.12-1.74l-0.51,0.02v1.07c0,0.18,0.04,0.32,0.12,0.4c0.08,0.08,0.24,0.14,0.47,0.15
				v0.1h-1.53v-0.1c0.22-0.02,0.36-0.07,0.44-0.16c0.06-0.08,0.1-0.23,0.1-0.46v-2.28c0-0.21-0.04-0.35-0.1-0.43
				c-0.07-0.07-0.22-0.12-0.43-0.13v-0.1h1.57c0.36,0,0.67,0.05,0.9,0.16c0.35,0.16,0.53,0.42,0.53,0.8c0,0.49-0.37,0.79-1.1,0.91
				l1.01,1.49c0.07,0.1,0.22,0.17,0.46,0.2V21.26z M147.61,18.55c0-0.35-0.18-0.58-0.54-0.7c-0.2-0.07-0.45-0.1-0.71-0.09
				c-0.16,0-0.26,0.02-0.3,0.04c-0.06,0.03-0.09,0.1-0.09,0.2v1.36c0.46,0,0.81-0.04,1.03-0.1C147.4,19.14,147.61,18.9,147.61,18.55
				z"></path>
			</g>
		</g>
		<g>
			<path class="st0" d="M3.31,7.55c0.01-1,0.05-3.29-0.26-4.14C2.63,2.37,1.31,2.37,0.28,2.37l0.01-0.84h16.05l-0.06,4.69h-0.74
			c-0.56-3.64-2.24-3.85-5.66-3.85H7.54c-0.48,0-0.71-0.04-0.81,0.12C6.67,2.61,6.7,2.95,6.69,3.64L6.58,11
			c4.42,0.19,5.09-1.58,5.32-3.82h0.74c-0.05,1.4-0.1,2.82-0.19,4.22c0.05,1.27,0.06,2.58,0.07,3.85h-0.74
			c-0.4-3.26-2.12-3.42-5.21-3.42L6.5,16.93c-0.02,0.93-0.03,2.4,0.53,3.14c0.82,1.08,2.83,1.14,4.12,1.11
			c3.37-0.06,5.56-0.47,6.04-4.16h0.74l-0.36,5H0l0.01-0.72c1.03,0,2.36,0,2.79-1.06c0.34-0.84,0.37-3.13,0.39-4.13L3.31,7.55z"></path>
			<path class="st0" d="M25.21,18.33c0,2.05-0.39,2.98,2.12,3.13l0,0.62c-1.17-0.03-2.33-0.1-3.49-0.13
			c-1.22,0.03-2.46,0.09-3.68,0.13l0-0.62c2.43-0.15,2.27-0.9,2.3-2.95l0.06-3.82c0.01-0.87,0.04-3.05-0.11-3.76
			c-0.24-1.12-1.11-0.99-2.15-0.99l0.01-0.62c1.68-0.19,2.88-0.68,4.47-0.96l0.32,2.51c1.25-1.58,2.81-2.51,4.91-2.51
			c1.9,0,3.77,0.65,4.39,2.51c1.16-1.64,2.88-2.51,4.95-2.51c1.42,0,2.84,0.37,3.76,1.49c0.86,1.03,0.83,2.83,0.81,4.1l-0.06,4.38
			c0,2.05-0.36,2.98,2.15,3.13l0,0.62c-1.2-0.03-2.39-0.1-3.59-0.13c-1.19,0.03-2.39,0.09-3.58,0.13l0-0.62
			c2.39-0.15,2.21-0.9,2.27-2.95l0.06-3.91c0.03-2.17,0.33-5.25-2.93-5.25c-1.32,0-2.6,0.9-3.16,2.06c-0.43,0.9-0.45,2.05-0.46,3.2
			l-0.06,3.73c0.04,2.05-0.39,2.98,2.15,3.13l-0.01,0.62c-1.16-0.03-2.36-0.1-3.52-0.13c-1.23,0.03-2.43,0.09-3.65,0.13l0.01-0.62
			c2.43-0.15,2.21-0.9,2.27-2.95l0.06-3.91c0.03-2.17,0.33-5.25-2.93-5.25c-1.33,0-2.6,0.9-3.16,2.06c-0.44,0.9-0.45,2.05-0.47,3.2
			L25.21,18.33z"></path>
			<path class="st0" d="M52.6,10.94h0.07c1.22-1.65,2.72-2.58,4.82-2.58c4.26,0,7.12,3.08,7.07,7.11c-0.06,3.79-3,6.96-7.08,6.96
			c-1.9,0-3.25-0.56-4.63-1.77l-0.08,6.03c-0.03,2.24-0.27,3.04,2.45,3.17l-0.01,0.62c-1.19-0.03-2.39-0.1-3.58-0.13
			c-1.29,0.03-2.59,0.1-3.88,0.13l0.01-0.62c2.43-0.15,2.24-0.93,2.27-2.98L50.2,14.7c0.01-0.87,0.04-3.05-0.11-3.76
			c-0.25-1.12-1.12-0.99-2.15-0.99l0.01-0.62c1.62-0.22,3.21-0.62,4.7-0.96L52.6,10.94z M52.91,16.81
			c-0.02,1.05-0.04,2.58,0.66,3.38c0.73,0.84,1.99,1.24,3.15,1.24c3.49,0,4.57-3.26,4.61-6.05c0.04-2.82-0.85-6.03-4.37-6.03
			c-1.35,0-2.59,0.65-3.29,1.77c-0.69,1.12-0.71,2.21-0.73,3.48L52.91,16.81z"></path>
			<path class="st0" d="M67.74,11.65c-0.22-0.53-0.53-1.31-0.91-1.74c-0.28-0.31-1.06-0.65-1.45-0.65l0.01-0.62
			c1.09,0.03,2.2,0.09,3.29,0.12c1.23-0.03,2.42-0.09,3.65-0.12l-0.01,0.62c-0.45,0.16-1.97,0.09-1.99,1.09
			c-0.01,0.81,0.93,2.89,1.27,3.73l2,4.75l2.5-5.59c0.33-0.75,0.93-2.08,0.94-2.89c0.02-0.87-1.08-1.05-1.76-1.09l0.01-0.62
			c0.84,0.03,1.65,0.09,2.48,0.12c0.71-0.03,1.42-0.09,2.14-0.12l-0.01,0.62c-1.35,0.03-1.4,0.94-1.93,1.99l-0.43,0.91l-6.93,14.91
			c-0.43,0.96-1.4,3.35-2.76,3.35c-0.58,0.12-0.96-0.31-0.96-0.75c0.02-1.43,1.83-1.33,2.49-2.29c0.53-0.74,1.1-1.99,1.49-2.86
			l1.26-2.64L67.74,11.65z"></path>
			<path class="st0" d="M82.75,14.7c0.01-0.84,0.07-3.05-0.14-3.76c-0.27-1.12-1.08-0.99-2.12-0.99l0.01-0.62
			c1.51-0.09,2.95-0.65,4.37-0.96c0.28,0.9,0.39,2.02,0.34,3.14h0.07c0.86-1.89,2.5-3.14,4.73-3.14c1,0,2.28,0.46,2.27,1.61
			c-0.01,0.59-0.53,1.12-1.15,1.12c-1.36,0-1.04-1.61-2.3-1.61c-0.97,0-2.05,0.78-2.54,1.55c-0.75,1.28-0.78,2.8-0.8,4.23
			l-0.04,3.07c-0.04,2.26-0.31,3.01,2.4,3.13l-0.01,0.62c-1.23-0.03-2.49-0.1-3.71-0.13c-1.26,0.03-2.49,0.09-3.75,0.13l0.01-0.62
			c2.42-0.15,2.27-0.9,2.3-2.95L82.75,14.7z"></path>
			<path class="st0" d="M106.55,19.79c-1.54,1.8-3.37,2.64-5.79,2.64c-4,0-7.26-2.7-7.2-6.68c0.06-3.89,3.18-7.39,7.37-7.39
			c3.16,0,6.15,1.71,6.09,5.06c0,0.41-0.49,0.28-0.81,0.28h-9.27l-0.15,1.49c-0.04,2.95,1.52,6.24,4.98,6.24
			c1.65,0,3.12-1.05,4.1-2.29L106.55,19.79z M102.45,12.86c0.51,0,1.58,0.15,1.59-0.62c0.03-1.92-1.05-3.17-3.09-3.17
			c-2.42,0-3.42,1.77-3.83,3.79H102.45z"></path>
			<path class="st0" d="M117.87,13.58c0.32-0.16,0.27-0.56,0.27-0.9c0.03-2.11-0.15-3.61-2.79-3.61c-1.62,0-2.94,0.12-3.06,1.77
			c-0.08,0.69-0.51,1.37-1.31,1.37c-0.71,0-1.23-0.44-1.21-1.12c0.03-2.3,4.33-2.73,5.98-2.73c3.58,0,5.22,0.9,5.17,4.47l-0.07,5.13
			c-0.01,0.77-0.18,3.08,1.09,3.08c0.64,0,0.98-0.56,1.34-1l0.61,0.31c-0.53,1.03-1.74,2.08-2.93,2.08c-1.33,0-2.45-0.97-2.75-2.21
			c-1.53,1.18-3.42,2.21-5.42,2.21c-1.71,0-3.35-1-3.32-2.73c0.04-2.61,3.12-3.73,5.2-4.63L117.87,13.58z M118.15,14.35
			c-1.95,0.9-5.65,2.11-5.69,4.6c-0.02,1.15,0.71,2.24,2.04,2.24c1.26,0,2.66-0.93,3.58-1.77L118.15,14.35z"></path>
			<path class="st0" d="M139.87,18.33c-0.03,2.05-0.3,2.98,2.21,3.13l-0.01,0.62c-1.16-0.03-2.35-0.1-3.52-0.13
			c-1.26,0.03-2.49,0.09-3.75,0.13l0.01-0.62c2.42-0.15,2.27-0.9,2.3-2.95l0.06-3.97c0.03-2.14,0.17-5.19-2.9-5.19
			c-2.52,0-4.16,1.9-4.19,4.17l-0.07,4.81c-0.03,2.05-0.33,2.98,2.21,3.13l-0.01,0.62c-1.16-0.03-2.35-0.1-3.51-0.13
			c-1.26,0.03-2.48,0.09-3.75,0.13l0.01-0.62c2.42-0.15,2.27-0.9,2.3-2.95l0.06-3.82c0.01-0.87,0.04-3.05-0.11-3.76
			c-0.24-1.12-1.12-0.99-2.15-0.99l0.01-0.62c1.68-0.19,2.88-0.68,4.47-0.96l0.38,2.83h0.06c1.16-1.93,2.91-2.83,5.21-2.83
			c3.06,0,4.79,1.33,4.75,4.29L139.87,18.33z"></path>
		</g>
	</g>
</svg>